<svg t="1688456728684" class="icon" viewBox="0 0 1024 1024" version="1.1" xmlns="http://www.w3.org/2000/svg" p-id="6053" width="128" height="128"><path d="M512 482.461538m-64.984615 0a64.984615 64.984615 0 1 0 129.96923 0 64.984615 64.984615 0 1 0-129.96923 0Z" p-id="6054" fill="#13227a"></path><path d="M488.369231 580.923077L427.323077 1024h169.353846l-61.046154-443.076923c-15.753846 3.938462-31.507692 3.938462-47.261538 0zM462.769231 571.076923c-31.507692-17.723077-51.2-51.2-51.2-88.615385v-1.96923c-17.723077-3.938462-37.415385-1.969231-53.169231 7.876923-35.446154 19.692308-263.876923 234.338462-263.876923 234.338461s301.292308-88.615385 334.769231-108.307692c15.753846-9.846154 27.569231-25.6 33.476923-43.323077zM565.169231 395.815385c11.815385-13.784615 19.692308-31.507692 19.692307-49.23077C584.861538 305.230769 512 0 512 0s-72.861538 305.230769-72.861538 344.615385c0 19.692308 7.876923 37.415385 19.692307 49.230769 33.476923-17.723077 72.861538-19.692308 106.338462 1.969231zM561.230769 571.076923c5.907692 17.723077 15.753846 33.476923 33.476923 43.323077 35.446154 19.692308 334.769231 108.307692 334.769231 108.307692S703.015385 508.061538 667.569231 488.369231c-17.723077-9.846154-35.446154-11.815385-53.169231-7.876923v1.96923c0 37.415385-21.661538 70.892308-53.169231 88.615385z" p-id="6055" fill="#13227a"></path></svg>